<svg id="Layer_5" enable-background="new 0 0 64 64" height="512" viewBox="0 0 64 64" width="512" xmlns="http://www.w3.org/2000/svg" xmlns:xlink="http://www.w3.org/1999/xlink"><linearGradient id="SVGID_1_" gradientUnits="userSpaceOnUse" x1="32" x2="32" y1="63" y2="1"><stop offset="0" stop-color="#9f2fff"/><stop offset="1" stop-color="#0bb1d3"/></linearGradient><path d="m9 17.414-3.707-3.707 1.414-1.414 2.293 2.293 9.293-9.293 1.414 1.414zm54 21.774c0 3.331-1.387 6.556-3.806 8.848l-14.781 14.002c-.654.62-1.511.962-2.413.962s-1.759-.342-2.413-.962l-13.824-13.097c-.058.084-.102.177-.163.259l-1.6 2.133v1.851c1.161.414 2 1.514 2 2.816v7h-22v-7c0-1.302.839-2.402 2-2.816v-1.95l-2.27-4.571c-.477-.961-.73-2.037-.73-3.112v-4.108c0-.816-.193-1.634-.559-2.364l-1.165-2.331c-.18-.362-.276-.768-.276-1.172 0-1.443 1.175-2.618 2.618-2.618 2.137 0 4.041.888 5.382 2.3v-10.258h-8v-22h22v22h-8v6.184c.314-.112.648-.184 1-.184.771 0 1.468.301 2 .78.532-.48 1.229-.78 2-.78 1.383 0 2.539.945 2.884 2.22.346-.139.721-.22 1.116-.22.058 0 .112.014.168.017 2.312-2.551 5.56-4.017 9.019-4.017h.179c3.255 0 6.315 1.268 8.617 3.569l.017.017.017-.017c2.301-2.301 5.362-3.569 8.617-3.569h.179c6.719 0 12.187 5.468 12.187 12.188zm-54-18.188v-1c0-1.654 1.346-3 3-3s3 1.346 3 3v1h6v-18h-18v18zm15 35c0-.552-.448-1-1-1h-16c-.552 0-1 .448-1 1v5h18zm0-8c.645-.859 1-1.925 1-3v-11c0-.552-.448-1-1-1s-1 .448-1 1v2h-2v-2-2c0-.552-.448-1-1-1s-1 .448-1 1v4h-2v-4c0-.552-.448-1-1-1s-1 .448-1 1v4h-2v-4-12c0-.552-.448-1-1-1s-1 .448-1 1v18.245 1.713 2h-2v-2-1.713c0-2.914-2.371-5.286-5.286-5.287-.437 0-.714.277-.714.618 0 .096.022.191.065.276l1.165 2.331c.503 1.007.77 2.134.77 3.259v4.108c0 .768.181 1.536.521 2.223l2.479 4.993v2.234h14v-2.333zm37-8.812c0-5.618-4.57-10.188-10.188-10.188h-.179c-2.721 0-5.279 1.06-7.203 2.983l-1.43 1.431-1.431-1.431c-1.923-1.923-4.482-2.983-7.203-2.983h-.179c-2.667 0-5.192 1.033-7.084 2.866.553.544.897 1.299.897 2.134v11c0 .698-.118 1.39-.322 2.055l14.284 13.532c.563.533 1.514.533 2.076 0l14.781-14.003c2.022-1.916 3.181-4.612 3.181-7.396zm-9.979-8.186-.051 2c3.325.084 6.03 2.859 6.03 6.186 0 1.152-.325 2.285-.939 3.274l1.699 1.055c.812-1.306 1.24-2.803 1.24-4.329 0-4.402-3.579-8.074-7.979-8.186zm1.283 15.297 1.375 1.451 2.137-2.024-1.375-1.451zm-7.304-4.299h6v6h-6v6h-6v-6h-6v-6h6v-6h6zm-2 2v-6h-2v6h-6v2h6v6h2v-6h6v-2z" fill="url(#SVGID_1_)"/></svg>